<svg width="100" height="100" viewBox="0 0 100 100" fill="none" xmlns="http://www.w3.org/2000/svg">
<rect x="96" y="97" width="91" height="90" rx="45" transform="rotate(-180 96 97)" fill="#1F1F21"/>
<g clip-path="url(#clip0_38_485)">
<path d="M50 100C36.7392 100 24.0215 94.7322 14.6447 85.3553C5.26785 75.9785 0 63.2608 0 50C0 36.7392 5.26785 24.0215 14.6447 14.6447C24.0215 5.26785 36.7392 0 50 0C63.2608 0 75.9785 5.26785 85.3553 14.6447C94.7322 24.0215 100 36.7392 100 50C100 63.2608 94.7322 75.9785 85.3553 85.3553C75.9785 94.7322 63.2608 100 50 100ZM71.875 53.125C72.7038 53.125 73.4987 52.7958 74.0847 52.2097C74.6708 51.6237 75 50.8288 75 50C75 49.1712 74.6708 48.3763 74.0847 47.7903C73.4987 47.2042 72.7038 46.875 71.875 46.875L35.6687 46.875L49.0875 33.4625C49.3781 33.172 49.6085 32.827 49.7658 32.4474C49.923 32.0678 50.0039 31.6609 50.0039 31.25C50.0039 30.8391 49.923 30.4322 49.7658 30.0526C49.6085 29.673 49.3781 29.328 49.0875 29.0375C48.797 28.7469 48.452 28.5165 48.0724 28.3592C47.6928 28.202 47.2859 28.1211 46.875 28.1211C46.4641 28.1211 46.0572 28.202 45.6776 28.3592C45.298 28.5165 44.953 28.7469 44.6625 29.0375L25.9125 47.7875C25.6215 48.0778 25.3906 48.4226 25.233 48.8023C25.0755 49.1819 24.9944 49.589 24.9944 50C24.9944 50.411 25.0755 50.8181 25.233 51.1977C25.3906 51.5774 25.6215 51.9222 25.9125 52.2125L44.6625 70.9625C44.953 71.2531 45.298 71.4835 45.6776 71.6408C46.0572 71.798 46.4641 71.8789 46.875 71.8789C47.2859 71.8789 47.6928 71.798 48.0724 71.6408C48.452 71.4835 48.797 71.2531 49.0875 70.9625C49.3781 70.672 49.6085 70.327 49.7658 69.9474C49.923 69.5678 50.0039 69.1609 50.0039 68.75C50.0039 68.3391 49.923 67.9322 49.7658 67.5526C49.6085 67.173 49.3781 66.828 49.0875 66.5375L35.6687 53.125L71.875 53.125Z" fill="white"/>
</g>
<defs>
<clipPath id="clip0_38_485">
<rect width="100" height="100" fill="white" transform="matrix(-1 0 0 -1 100 100)"/>
</clipPath>
</defs>
</svg>
